<?xml version="1.0" encoding="UTF-8"?>
<svg id="_레이어_1" data-name="레이어 1" xmlns="http://www.w3.org/2000/svg" viewBox="0 0 1851.16 1133.1">
  <defs>
    <style>
      .cls-1 {
        stroke-width: 5px;
      }

      .cls-1, .cls-2, .cls-3 {
        fill: none;
        stroke-linecap: round;
        stroke-linejoin: round;
      }

      .cls-1, .cls-3 {
        stroke: #f0f0f0;
      }

      .cls-2 {
        stroke: #000;
        stroke-width: 20px;
      }

      .cls-3 {
        stroke-width: 15px;
      }

      .cls-4 {
        fill: #0c0c0c;
        opacity: .9;
        stroke-width: 0px;
      }
    </style>
  </defs>
  <path class="cls-4" d="M919.43,297.3l-7.41,24.29-17.29,8.65-40.35-40.35-17.71-36.23-39.12-12.76-38.29,28.41-52.7,20.18-22.65,92.64-24.7,28,16.88,55.17-15.48,22.79-43.6-4.98-25.83,22.28v26.3l-42.18,9.95-74.17-35.55-78.44-75.83-33.41,21.8,6.16,47.87-47.63,39.81-4.74,19.43-37.92,53.79,36.26,39.81,38.15,9.24,17.3,17.06,54.5-13.27,25.36,26.78-5.92,33.65.47,41.23-22.28,51.19,12.56,20.85,1.18,24.41-13.03,30.1,36.97,17.3h39.81l18.96-30.33,27.96,4.98,26.07-45.5,22.99,11.85,6.16,56.4,27.02,22.75,3.79,19.91-10.9,11.37,43.6,56.64,2.61,21.8h52.61l28.67-39.58,12.56,5.45,4.27,20.14,27.96,13.98h59.24l21.33-23.46,30.33-6.64,15.4-37.68,31.99-12.09,13.27-24.65,14.69,6.16,17.77,32.94,43.84,3.08,14.93-29.39,11.85,5.92,3.79,85.79,31.52,14.22,23.22,28.67,50.71-9.72,10.19-41,46.92-10.9,2.37-30.1,22.75-27.73,21.56-4.74,21.56,16.83,21.8-10.66,17.3-33.18,20.38-.24,4.27-6.16-5.92-13.98,8.06-9.48h47.16v-31.04l20.85-15.4,10.66-51.66-48.11-5.21-15.64-33.41,43.13-68.96,2.13-25.83,31.52-12.8,35.31-2.13,20.62-36.26-26.3-53.77v-39.6l-25.12-19.67-68.72,46.45-64.69,17.3-38.39,24.65-19.91-17.54v-39.81l21.09-21.56v-25.83l22.75-14.93-4.27-89.1-19.2-11.61-21.8-.95v-14.46l28.44-28.67-7.11-43.84s-40.05-10.66-40.29-11.61-25.83-26.78-25.83-26.78l-.47-10.43,22.99-11.85-5.21-59.24,13.51-27.49-13.51-18.96-25.83,6.4-18.25-30.1-39.34,24.65-33.89,7.35-26.78-18.01-35.55,1.42-12.8-29.62-45.5-5.91-29.39,59.94-22.99,8.06-26.3,22.28,9.01,31.04-8.06,27.49-25.36,8.77-4.05,31.04,19.26,31.5Z"/>
  <g>
    <polyline class="cls-1" points="1125.83 129.3 1125.83 166.1 1115.46 183 1115.46 207.31 1137.03 239.87 1140.41 293.99 1127.94 310.27 1118.42 300.54 1104.05 311.75 1096.85 341.15"/>
    <polyline class="cls-1" points="978.95 130.73 1007.75 188.43 1025.6 191.32 1029.01 216.26 1012.47 228.59 1014.05 250.38 1006.17 260.62 1018.25 281.35 1036.1 281.35 1060.24 310.23 1098.83 342.82 1118.42 365.88 1120.09 388.19 1151.98 406.54 1181.31 406.54 1228.08 379.87 1247.43 392.37 1265.98 388.74 1274.45 374.5"/>
    <polyline class="cls-1" points="1120.09 388.19 1087.11 400.78 1063.16 424.52 1050.23 418.16 1031.79 400.36 1008.69 398.02 993.22 366.44 976.26 360.3 962.06 335.5 933.87 334.44 912.89 318.77"/>
    <polyline class="cls-1" points="1178.92 406.54 1187.75 429.32 1185.58 458.55 1171.18 460.19 1180.47 503.39 1204.35 514.69 1204.35 563.71 1242.8 563.71 1261.03 547.13 1274.15 543.85"/>
    <polyline class="cls-1" points="1187.41 433.99 1155.61 435.05 1142.58 457.04 1115.29 457.04 1087.6 468.23 1087.6 485.54 1067.65 499.79 1063.37 517.71 1044.85 534.2 1028.56 528.91 1015.53 522.8 993.33 521.58 978.95 504.07 978.06 487.37 962.59 478.62 930.62 480.45 916.37 461.31 930.62 441.16 923.29 389.24 894.73 330.24 844.92 352.93 820.17 388.21 827.09 408.35 806.33 433.83 825.16 449.24 849.07 461.45 850.31 507.02 841.6 537.65 856.54 550.6 865.75 571.77 898.07 563.55 927.01 571.77 948.43 571.77 964.87 563.3 1008.95 566.55 1034.84 563.8 1044.85 554.64"/>
    <polyline class="cls-1" points="1044.85 534.2 1044.85 554.64 1065.31 557.09 1086.6 545.65 1103.79 550.54 1122.13 583.95 1185.01 597.54"/>
    <polyline class="cls-1" points="1034.84 563.8 1042.32 584.22 1034.84 603.15 1017.91 615.1 990.52 655.69 922.28 639.75 895.88 622.32 868.24 624.06 853.05 604.64 865.75 571.77"/>
    <polyline class="cls-1" points="657.85 487.77 677.97 537.12 707.01 511.4 737.65 506.98 782.13 465.39 795.03 436.74 806.33 433.83"/>
    <polyline class="cls-1" points="677.97 537.12 700.19 559.51 742.66 580.63 747.47 611.59 813.71 616.12 853.05 604.64"/>
    <polyline class="cls-1" points="868.24 624.06 845.98 646.98 847.97 673.87 830.41 687.46 819.66 680.1 803.52 691.14 803.52 724.82"/>
    <polyline class="cls-1" points="1204.35 563.71 1185.01 597.54 1185.01 635.77 1157.3 669.27 1156.33 685.53 1136.58 710.75"/>
    <polyline class="cls-1" points="990.52 655.69 998.76 675.81 1012.55 680.67 1028.98 698.87"/>
    <polyline class="cls-3" points="538.33 536.53 563.51 576.62 600.83 605.08 631.5 616.12 648.78 640.15 693.89 672.19 725.92 686.94 762.6 686.94 787.26 720.25 807.49 725.94 814.87 748.49 848.8 756.5 864.61 769.78 898.07 769.78 910.77 780.95 956.08 780.95 982.22 757.76 982.22 742.59 1021.63 703.59 1053.46 683.15 1112.26 689.89 1117.95 701.91 1132.92 707.18 1167.06 740.48 1227.55 739.21 1263.38 719.4 1299.21 661.65 1301.95 627.72 1292.27 594.1"/>
    <polyline class="cls-1" points="450.42 692.6 473.64 675.14 486.84 683.87 491.68 715.19 510.17 721.35 540.97 717.83 558.14 701.55 553.3 675.14 560.78 644.42 591.59 644.42 603.47 654.02 630.32 654.46 648.78 640.15"/>
    <polyline class="cls-1" points="630.32 654.46 634.28 680.75 643.08 699.35 633.4 718.27 617.55 733.24 621.07 768.45 591.59 775.49 586.75 801.89 568.7 801.89 556.82 785.61 522.67 780.95 495.32 798.7 494.59 808.6 477.75 817.61 470.37 796.78 443.39 771.09"/>
    <polyline class="cls-1" points="621.07 768.45 650.32 790.76 661.56 854.56 677.66 871.87 737.2 858.2 749.96 839.98 769.4 839.98 781.56 857.6 790.06 857.6 800.69 843.93 823.48 843.62 831.38 852.13 838.36 852.43 851.12 844.23 861.15 853.04 861.15 888.28 876.34 906.51 908.84 906.51 913.7 925.34 930.72 932.02 952.81 961.33"/>
    <polyline class="cls-1" points="596.51 855.56 611.69 856.94 635.07 878.6 639.59 893.72 675.74 892.94 702.08 898.86 707.53 913.98 691.48 923.33 700.83 941.1 715.17 955.75 715.17 973.82 723.12 983.02 736.99 983.02 747.82 1004.23"/>
    <polyline class="cls-1" points="812.03 739.82 792.16 757.7 753.61 759.85 735.95 799.16 738.87 808.99 734.11 827.88 698.48 839.55 677.66 871.87 675.74 892.94"/>
    <polyline class="cls-1" points="910.77 780.95 908.85 799.03 914.04 819.04 928.85 822.93 928.85 839.82 921.06 848.13 921.58 894.89 908.84 906.51"/>
    <polyline class="cls-1" points="1004.74 720.31 1024.65 748.17 1026.86 776.42 1055.55 835.13 1055.55 852.34 1078.94 876.18 1095.72 876.18 1105.87 891.63 1099.25 906.51 1128.82 930.03 1145.6 940.63 1161.49 934.89 1161.49 922.53 1178.26 913.26 1195.48 919.44 1218.87 908.84 1236.53 920.76 1260.64 964.65"/>
    <polyline class="cls-1" points="1172.06 740.37 1174.73 776.05 1186.48 811.84 1205.71 815.22 1251.82 834.27 1265.17 848.69 1289.21 857.24 1307.19 894.45 1326.95 906.91 1342.87 932.89"/>
    <polyline class="cls-1" points="1298.47 662.84 1322.66 673.47 1330.41 689.8 1328.29 718.13 1343.99 730.12 1351.07 745.83 1384.58 766.3"/>
  </g>
  <path class="cls-2" d="M919.43,297.3l-7.41,24.29-17.29,8.65-40.35-40.35-17.71-36.23-39.12-12.76-38.29,28.41-52.7,20.18-22.65,92.64-24.7,28,16.88,55.17-15.48,22.79-43.6-4.98-25.83,22.28v26.3l-42.18,9.95-74.17-35.55-78.44-75.83-33.41,21.8,6.16,47.87-47.63,39.81-4.74,19.43-37.92,53.79,36.26,39.81,38.15,9.24,17.3,17.06,54.5-13.27,25.36,26.78-5.92,33.65.47,41.23-22.28,51.19,12.56,20.85,1.18,24.41-13.03,30.1,36.97,17.3h39.81l18.96-30.33,27.96,4.98,26.07-45.5,22.99,11.85,6.16,56.4,27.02,22.75,3.79,19.91-10.9,11.37,43.6,56.64,2.61,21.8h52.61l28.67-39.58,12.56,5.45,4.27,20.14,27.96,13.98h59.24l21.33-23.46,30.33-6.64,15.4-37.68,31.99-12.09,13.27-24.65,14.69,6.16,17.77,32.94,43.84,3.08,14.93-29.39,11.85,5.92,3.79,85.79,31.52,14.22,23.22,28.67,50.71-9.72,10.19-41,46.92-10.9,2.37-30.1,22.75-27.73,21.56-4.74,21.56,16.83,21.8-10.66,17.3-33.18,20.38-.24,4.27-6.16-5.92-13.98,8.06-9.48h47.16v-31.04l20.85-15.4,10.66-51.66-48.11-5.21-15.64-33.41,43.13-68.96,2.13-25.83,31.52-12.8,35.31-2.13,20.62-36.26-26.3-53.77v-39.6l-25.12-19.67-68.72,46.45-64.69,17.3-38.39,24.65-19.91-17.54v-39.81l21.09-21.56v-25.83l22.75-14.93-4.27-89.1-19.2-11.61-21.8-.95v-14.46l28.44-28.67-7.11-43.84s-40.05-10.66-40.29-11.61-25.83-26.78-25.83-26.78l-.47-10.43,22.99-11.85-5.21-59.24,13.51-27.49-13.51-18.96-25.83,6.4-18.25-30.1-39.34,24.65-33.89,7.35-26.78-18.01-35.55,1.42-12.8-29.62-45.5-5.91-29.39,59.94-22.99,8.06-26.3,22.28,9.01,31.04-8.06,27.49-25.36,8.77-4.05,31.04,19.26,31.5Z"/>
</svg>